<?xml version="1.0" standalone="no"?>
<!DOCTYPE svg PUBLIC "-//W3C//DTD SVG 20010904//EN"
 "http://www.w3.org/TR/2001/REC-SVG-20010904/DTD/svg10.dtd">
<svg version="1.0" xmlns="http://www.w3.org/2000/svg"
 width="300.000000pt" height="300.000000pt" viewBox="0 0 300.000000 300.000000"
 preserveAspectRatio="xMidYMid meet">
<metadata>
Created by potrace 1.10, written by Peter Selinger 2001-2011
</metadata>
<g transform="translate(0.000000,300.000000) scale(0.100000,-0.100000)"
fill="#000000" stroke="none">
<path d="M879 1941 c-21 -17 -25 -30 -29 -108 l-6 -88 -23 50 c-13 28 -32 69
-43 93 -28 59 -53 71 -84 41 -22 -23 -138 -307 -151 -370 -14 -69 81 -97 131
-38 14 17 29 41 32 55 9 34 23 30 41 -13 23 -58 41 -73 85 -73 45 0 78 28 78
65 0 20 5 25 26 25 15 0 36 12 53 31 l29 31 48 -67 c30 -44 59 -72 81 -81 18
-8 33 -16 33 -19 0 -2 -11 -12 -25 -21 -24 -16 -26 -16 -50 10 -53 57 -111 22
-169 -101 -16 -34 -33 -60 -38 -57 -5 3 -24 36 -43 74 -19 38 -45 78 -57 89
-30 28 -73 27 -103 -4 -25 -24 -25 -27 -25 -188 0 -160 1 -165 25 -191 31 -33
69 -34 99 -1 27 29 39 31 56 10 7 -9 29 -15 50 -15 33 0 44 6 74 41 22 26 39
38 47 33 7 -4 29 -6 50 -6 24 1 41 -3 46 -13 5 -8 23 -26 41 -39 40 -29 29
-40 -38 -37 -34 1 -51 -4 -62 -16 -24 -28 -29 -57 -14 -79 14 -18 31 -19 443
-21 474 -1 463 -3 463 62 0 44 -21 58 -81 56 l-51 -1 21 29 c26 36 26 48 1 86
-20 31 -30 142 -11 131 5 -3 25 -48 45 -99 20 -52 47 -104 61 -117 24 -23 25
-23 46 -4 12 10 28 32 37 49 l15 30 10 -30 c20 -61 43 -75 124 -75 65 0 77 3
98 25 27 27 30 41 15 80 -9 24 -6 30 21 56 41 38 38 84 -7 114 -30 20 -30 21
-16 53 16 32 16 30 -16 94 -2 3 16 15 40 26 168 74 179 326 19 420 -60 35
-156 37 -219 4 -78 -41 -128 -142 -120 -244 l3 -43 -49 -3 c-47 -3 -48 -2 -41
20 4 13 10 73 12 135 5 112 5 112 -23 138 -30 28 -69 32 -98 10 -17 -13 -22
-13 -43 1 -20 12 -54 14 -196 12 -162 -3 -175 -4 -225 -29 l-53 -26 -29 28
c-59 60 -130 22 -140 -74 l-5 -52 -48 65 c-26 35 -57 70 -70 77 -32 18 -71 16
-98 -6z m-96 -166 c30 -77 64 -164 76 -193 l21 -53 -42 3 -41 3 -37 110 -37
110 -37 -112 -38 -113 -40 0 c-28 0 -39 4 -35 13 6 15 125 322 138 356 5 13
11 22 14 20 2 -3 28 -67 58 -144z m272 14 c102 -148 99 -149 93 23 l-3 108 37
0 38 0 0 -195 0 -195 -38 0 c-38 0 -40 1 -123 125 -46 68 -87 124 -90 125 -3
0 -4 -36 -1 -80 l5 -80 -42 0 -41 0 0 150 0 150 38 0 c36 0 39 -2 127 -131z
m475 96 l0 -35 -48 0 c-101 0 -157 -35 -167 -105 -13 -82 39 -145 120 -145 23
0 25 3 25 51 l0 51 -37 -4 c-37 -3 -38 -2 -41 35 l-3 37 75 0 75 0 3 -121 3
-121 -85 4 c-108 4 -154 26 -188 89 -20 37 -23 55 -20 114 6 127 74 181 231
184 l57 1 0 -35z m210 0 l0 -35 -60 0 -60 0 0 -45 0 -45 80 0 80 0 0 -35 0
-35 -80 0 -80 0 0 -45 0 -45 60 0 60 0 0 -35 0 -35 -95 0 -95 0 0 195 0 195
95 0 95 0 0 -35z m130 -91 l0 -125 -36 3 -36 3 -5 123 -5 122 41 0 41 0 0
-126z m402 114 c48 -14 103 -73 117 -125 38 -135 -46 -253 -179 -253 -170 0
-252 200 -135 329 51 56 118 73 197 49z m-262 -343 l0 -35 -110 0 -110 0 0 35
0 35 110 0 110 0 0 -35z m-688 -50 c29 -14 65 -25 80 -25 33 0 41 -12 25 -34
-12 -17 -15 -16 -51 5 -20 12 -62 25 -92 28 -54 6 -54 6 -39 29 9 12 18 22 20
22 1 0 27 -11 57 -25z m767 6 l24 -19 -38 -33 c-21 -19 -55 -44 -76 -57 l-37
-22 -25 44 c-28 50 -23 56 37 56 22 0 40 8 56 25 28 30 28 30 59 6z m-295 -26
c11 -8 17 -17 15 -20 -7 -6 -59 18 -59 28 0 12 23 8 44 -8z m-955 -175 l64
-129 44 97 c25 53 51 112 59 130 12 27 19 32 49 32 l35 0 0 -134 0 -134 -35 0
-35 0 0 57 0 56 -44 -91 c-43 -90 -44 -91 -75 -86 -29 4 -36 13 -77 93 -24 49
-45 89 -47 89 -1 0 0 -45 1 -100 l4 -100 -36 0 -36 0 0 175 0 175 33 0 c33 0
34 -2 96 -130z m511 108 c121 -62 117 -249 -6 -309 -108 -52 -222 14 -232 135
-6 70 1 96 35 137 52 61 128 75 203 37z m310 -8 l0 -30 -105 0 -105 0 0 30 0
30 105 0 105 0 0 -30z m120 -115 c0 -138 1 -145 20 -145 16 0 20 -7 20 -30 l0
-30 -75 0 -75 0 0 30 c0 23 4 30 20 30 19 0 20 7 20 145 l0 145 35 0 35 0 0
-145z m145 48 c17 -51 32 -92 35 -93 3 0 14 28 25 63 19 58 22 62 53 65 25 3
33 0 30 -10 -8 -32 -103 -278 -108 -278 -3 0 -35 79 -71 176 l-67 175 37 -3
36 -3 30 -92z m325 62 l0 -36 -50 7 -50 7 0 -42 0 -41 70 0 70 0 0 -36 0 -37
-70 5 -70 5 0 -38 0 -39 50 0 50 0 0 -35 0 -35 -85 0 -85 0 2 175 3 175 83 0
82 0 0 -35z m-580 -138 c0 -48 -5 -80 -14 -93 -19 -25 -23 -12 -29 89 -4 75
-4 77 20 77 22 0 23 -3 23 -73z m-80 -64 l0 -113 -32 0 -33 0 2 112 c1 62 2
113 3 113 0 0 14 0 30 0 l30 0 0 -112z m-101 -73 c1 -20 7 -42 13 -48 10 -10
10 -15 -2 -22 -17 -11 -133 -14 -143 -4 -3 4 11 20 33 35 22 16 49 48 61 71
19 38 23 41 30 23 4 -11 8 -36 8 -55z m161 -55 c11 -13 8 -15 -14 -15 -25 0
-33 10 -19 23 10 11 19 8 33 -8z m-547 -77 l12 -33 6 35 6 35 2 -36 c1 -36 1
-36 -38 -35 -22 0 -38 3 -35 7 2 3 8 18 13 33 14 34 20 33 34 -6z m97 22 c0
-5 -7 -10 -15 -10 -8 0 -15 -9 -15 -20 0 -33 34 -24 49 13 l13 32 13 -30 c13
-30 13 -30 16 -5 3 17 10 25 24 25 16 0 20 -7 22 -33 1 -27 -1 -31 -13 -21 -8
6 -14 7 -14 2 0 -5 -27 -9 -59 -10 -52 -2 -61 1 -66 18 -4 11 -1 26 5 34 14
17 40 20 40 5z m217 -20 l15 35 13 -30 c13 -30 13 -30 16 -5 3 17 10 25 24 25
16 0 20 -7 22 -33 1 -27 -1 -31 -13 -21 -8 6 -14 7 -14 2 0 -5 -22 -10 -49
-10 -42 -1 -49 2 -43 16 5 14 4 14 -11 2 -22 -17 -22 -7 1 27 l17 26 3 -34 4
-35 15 35z m134 16 c20 18 27 6 7 -14 -8 -8 -8 -15 2 -27 7 -8 8 -15 2 -15 -5
0 -13 8 -17 18 -7 16 -8 15 -15 -3 -7 -15 -8 -10 -8 20 0 22 2 32 5 22 5 -18
6 -18 24 -1z m119 4 c0 -5 -4 -10 -10 -10 -5 0 -11 -12 -11 -27 l-2 -28 -4 28
c-4 22 -9 27 -31 26 -24 0 -25 -1 -7 -9 17 -7 17 -9 3 -9 -10 -1 -18 -5 -18
-10 0 -5 8 -12 18 -14 13 -4 11 -5 -5 -6 -20 -1 -23 4 -23 34 0 35 0 35 45 35
25 0 45 -4 45 -10z m48 -2 c9 -9 12 -9 12 1 0 7 4 10 9 7 4 -3 6 -17 3 -31 -7
-37 27 -33 41 5 14 37 23 38 32 3 l6 -27 12 25 c10 19 21 24 55 26 23 2 42 -2
42 -7 0 -6 -8 -10 -17 -11 -15 0 -15 -2 2 -9 17 -7 17 -9 3 -9 -10 -1 -18 -5
-18 -10 0 -5 8 -11 18 -14 9 -2 -29 -4 -85 -4 -97 0 -103 2 -104 21 0 12 -3
15 -6 9 -2 -7 -11 -13 -18 -13 -7 0 -16 -6 -18 -12 -3 -7 -6 4 -6 25 -1 38 14
48 37 25z"/>
<path d="M2165 1841 c-82 -35 -88 -194 -9 -230 37 -16 96 -13 120 7 32 26 44
55 44 111 0 41 -5 56 -27 81 -30 33 -90 48 -128 31z m75 -96 c23 -28 -9 -72
-45 -59 -36 14 -24 74 15 74 10 0 23 -7 30 -15z"/>
<path d="M1233 1380 c-30 -12 -63 -67 -63 -105 0 -16 9 -45 20 -63 37 -61 108
-66 155 -10 47 55 26 155 -36 177 -37 13 -46 13 -76 1z m66 -89 c7 -13 6 -23
-3 -36 -18 -25 -56 -11 -56 20 0 36 42 48 59 16z"/>
<path d="M1847 1014 c-9 -10 4 -34 19 -34 8 0 14 9 14 20 0 19 -19 27 -33 14z"/>
</g>
</svg>
